<svg width="13" height="11" viewBox="0 0 13 11" fill="none" xmlns="http://www.w3.org/2000/svg">
<rect x="0.860352" width="11.28" height="11" rx="4" fill="#FF6633"/>
<path d="M7.38035 9C7.31368 9 7.25702 8.98 7.21035 8.94C7.17035 8.89333 7.15035 8.83667 7.15035 8.77V3.17L5.49035 4.45C5.44368 4.49 5.39368 4.51 5.34035 4.51C5.28035 4.51 5.22368 4.47667 5.17035 4.41L4.91035 4.08C4.87702 4.03333 4.86035 3.98667 4.86035 3.94C4.86035 3.86 4.89368 3.79667 4.96035 3.75L7.14035 2.07C7.21369 2.02333 7.30035 2 7.40035 2H7.91035C7.97702 2 8.03035 2.02333 8.07035 2.07C8.11702 2.11 8.14035 2.16333 8.14035 2.23V8.77C8.14035 8.83667 8.11702 8.89333 8.07035 8.94C8.03035 8.98 7.97702 9 7.91035 9H7.38035Z" fill="white"/>
</svg>
